<mxfile host="65bd71144e">
    <diagram id="LKiVIgtU7nk1gsyLKb28" name="Page-1">
        <mxGraphModel dx="618" dy="544" grid="1" gridSize="10" guides="1" tooltips="1" connect="1" arrows="1" fold="1" page="1" pageScale="1" pageWidth="827" pageHeight="1169" math="0" shadow="0">
            <root>
                <mxCell id="0"/>
                <mxCell id="1" parent="0"/>
                <mxCell id="OyNV8yJTJvIm3zFJu1Wz-21" style="edgeStyle=orthogonalEdgeStyle;rounded=0;orthogonalLoop=1;jettySize=auto;html=1;entryX=0.999;entryY=0.424;entryDx=0;entryDy=0;endArrow=block;endFill=0;dashed=1;entryPerimeter=0;" parent="1" source="OyNV8yJTJvIm3zFJu1Wz-13" target="OyNV8yJTJvIm3zFJu1Wz-22" edge="1">
                    <mxGeometry relative="1" as="geometry">
                        <mxPoint x="220" y="143" as="targetPoint"/>
                    </mxGeometry>
                </mxCell>
                <mxCell id="OyNV8yJTJvIm3zFJu1Wz-13" value="WeatherBot" style="swimlane;fontStyle=1;align=center;verticalAlign=top;childLayout=stackLayout;horizontal=1;startSize=26;horizontalStack=0;resizeParent=1;resizeParentMax=0;resizeLast=0;collapsible=1;marginBottom=0;whiteSpace=wrap;html=1;" parent="1" vertex="1">
                    <mxGeometry x="450" y="40" width="350" height="200" as="geometry"/>
                </mxCell>
                <mxCell id="OyNV8yJTJvIm3zFJu1Wz-14" value="- name: String&lt;div&gt;- isActive: Boolean&lt;/div&gt;&lt;div&gt;- credentialsAPI: String&lt;/div&gt;&lt;div&gt;&lt;br&gt;&lt;/div&gt;" style="text;strokeColor=none;fillColor=none;align=left;verticalAlign=top;spacingLeft=4;spacingRight=4;overflow=hidden;rotatable=0;points=[[0,0.5],[1,0.5]];portConstraint=eastwest;whiteSpace=wrap;html=1;" parent="OyNV8yJTJvIm3zFJu1Wz-13" vertex="1">
                    <mxGeometry y="26" width="350" height="54" as="geometry"/>
                </mxCell>
                <mxCell id="OyNV8yJTJvIm3zFJu1Wz-15" value="" style="line;strokeWidth=1;fillColor=none;align=left;verticalAlign=middle;spacingTop=-1;spacingLeft=3;spacingRight=3;rotatable=0;labelPosition=right;points=[];portConstraint=eastwest;strokeColor=inherit;" parent="OyNV8yJTJvIm3zFJu1Wz-13" vertex="1">
                    <mxGeometry y="80" width="350" height="8" as="geometry"/>
                </mxCell>
                <mxCell id="OyNV8yJTJvIm3zFJu1Wz-16" value="+ getName(): String&lt;div&gt;+ digestMessage(String message): String&lt;/div&gt;&lt;div&gt;+ getStatus(): String&lt;/div&gt;&lt;div&gt;+ setStatus(Boolean isActive): void&lt;/div&gt;&lt;div&gt;+ getCredentialsAPI(): String&lt;/div&gt;&lt;div&gt;+ setCredentialsAPI(String credentialsAPI): void&lt;/div&gt;&lt;div&gt;- fetchWeather(String City): String&lt;/div&gt;" style="text;strokeColor=none;fillColor=none;align=left;verticalAlign=top;spacingLeft=4;spacingRight=4;overflow=hidden;rotatable=0;points=[[0,0.5],[1,0.5]];portConstraint=eastwest;whiteSpace=wrap;html=1;" parent="OyNV8yJTJvIm3zFJu1Wz-13" vertex="1">
                    <mxGeometry y="88" width="350" height="112" as="geometry"/>
                </mxCell>
                <mxCell id="OyNV8yJTJvIm3zFJu1Wz-22" value="&lt;p style=&quot;margin:0px;margin-top:4px;text-align:center;&quot;&gt;&lt;i&gt;&amp;lt;&amp;lt;Interface&amp;gt;&amp;gt;&lt;/i&gt;&lt;br&gt;&lt;b&gt;IBot&lt;/b&gt;&lt;/p&gt;&lt;hr size=&quot;1&quot; style=&quot;border-style:solid;&quot;&gt;&lt;p style=&quot;margin:0px;margin-left:4px;&quot;&gt;&lt;/p&gt;&lt;p style=&quot;margin:0px;margin-left:4px;&quot;&gt;+ getName(): String&lt;br&gt;+ digestMessage(String message): String&lt;/p&gt;&lt;p style=&quot;margin:0px;margin-left:4px;&quot;&gt;+ getStatus(): String&lt;/p&gt;&lt;p style=&quot;margin:0px;margin-left:4px;&quot;&gt;+ setStatus(Boolean isActive): void&lt;/p&gt;&lt;p style=&quot;margin:0px;margin-left:4px;&quot;&gt;+ getCredentialsAPI(): String&lt;/p&gt;&lt;p style=&quot;margin:0px;margin-left:4px;&quot;&gt;+ setCredentialsAPI(String credentialsAPI): void&lt;/p&gt;&lt;p style=&quot;margin:0px;margin-left:4px;&quot;&gt;&lt;br&gt;&lt;/p&gt;" style="verticalAlign=top;align=left;overflow=fill;html=1;whiteSpace=wrap;" parent="1" vertex="1">
                    <mxGeometry x="40" y="80" width="290" height="140" as="geometry"/>
                </mxCell>
            </root>
        </mxGraphModel>
    </diagram>
</mxfile>